<svg width="15" height="15" viewBox="0 0 15 15" fill="none" xmlns="http://www.w3.org/2000/svg">
<path d="M6.96215 12.2601L11.0157 8.20654C11.1288 8.09345 11.1854 7.95952 11.1854 7.80476C11.1854 7.65 11.1288 7.51607 11.0157 7.40297L6.96215 3.3494C6.84905 3.2363 6.71513 3.17976 6.56036 3.17976C6.4056 3.17976 6.27167 3.2363 6.15858 3.3494L5.24786 4.26011C5.13477 4.37321 5.07822 4.50714 5.07822 4.6619C5.07822 4.81666 5.13477 4.95059 5.24786 5.06369L7.98894 7.80476L5.24786 10.5458C5.13477 10.6589 5.07822 10.7929 5.07822 10.9476C5.07822 11.1024 5.13477 11.2363 5.24786 11.3494L6.15858 12.2601C6.27167 12.3732 6.4056 12.4298 6.56036 12.4298C6.71513 12.4298 6.84905 12.3732 6.96215 12.2601ZM13.355 4.36726C13.9681 5.41488 14.2747 6.56071 14.2747 7.80476C14.2747 9.0488 13.9681 10.1976 13.355 11.2512C12.7419 12.2988 11.9086 13.1292 10.855 13.7423C9.80739 14.3554 8.66155 14.6619 7.41751 14.6619C6.17346 14.6619 5.02465 14.3554 3.97108 13.7423C2.92346 13.1292 2.0931 12.2988 1.48001 11.2512C0.866911 10.1976 0.560364 9.0488 0.560364 7.80476C0.560364 6.56071 0.866911 5.41488 1.48001 4.36726C2.0931 3.31369 2.92346 2.48035 3.97108 1.86726C5.02465 1.25416 6.17346 0.947614 7.41751 0.947614C8.66155 0.947614 9.80739 1.25416 10.855 1.86726C11.9086 2.48035 12.7419 3.31369 13.355 4.36726Z" fill="white"/>
</svg>
