<svg width="15" height="11" viewBox="0 0 15 11" fill="none" xmlns="http://www.w3.org/2000/svg">
	<path d="M14.2401 1.78976C14.4067 1.95643 14.4901 2.15881 14.4901 2.3969C14.4901 2.635 14.4067 2.83738 14.2401 3.00405L7.77579 9.46833L6.56151 10.6826C6.39484 10.8493 6.19246 10.9326 5.95436 10.9326C5.71627 10.9326 5.51389 10.8493 5.34722 10.6826L4.13293 9.46833L0.900792 6.23619C0.734125 6.06952 0.650792 5.86714 0.650792 5.62905C0.650792 5.39095 0.734125 5.18857 0.900792 5.0219L2.11508 3.80762C2.28174 3.64095 2.48413 3.55762 2.72222 3.55762C2.96032 3.55762 3.1627 3.64095 3.32936 3.80762L5.95436 6.44155L11.8115 0.575474C11.9782 0.408807 12.1806 0.325474 12.4186 0.325474C12.6567 0.325474 12.8591 0.408807 13.0258 0.575474L14.2401 1.78976Z" fill="#54A029" />
</svg>
