<svg width="25" height="24" viewBox="0 0 25 24" fill="none" xmlns="http://www.w3.org/2000/svg">
<rect x="0.795532" y="-0.00292969" width="24" height="24" rx="4" fill="#54A029"/>
<path fill-rule="evenodd" clip-rule="evenodd" d="M7.33553 4.99707C7.39553 5.88707 7.54553 6.75707 7.78553 7.58707L6.58553 8.78707C6.17553 7.58707 5.91553 6.31707 5.82553 4.99707H7.33553ZM17.1955 17.0171C18.0455 17.2571 18.9155 17.4071 19.7955 17.4671V18.9571C18.4755 18.8671 17.2055 18.6071 15.9955 18.2071L17.1955 17.0171ZM8.29553 2.99707H4.79553C4.24553 2.99707 3.79553 3.44707 3.79553 3.99707C3.79553 13.3871 11.4055 20.9971 20.7955 20.9971C21.3455 20.9971 21.7955 20.5471 21.7955 19.9971V16.5071C21.7955 15.9571 21.3455 15.5071 20.7955 15.5071C19.5555 15.5071 18.3455 15.3071 17.2255 14.9371C17.1255 14.8971 17.0155 14.8871 16.9155 14.8871C16.6555 14.8871 16.4055 14.9871 16.2055 15.1771L14.0055 17.3771C11.1755 15.9271 8.85553 13.6171 7.41553 10.7871L9.61553 8.58707C9.89553 8.30707 9.97553 7.91707 9.86553 7.56707C9.49553 6.44707 9.29553 5.24707 9.29553 3.99707C9.29553 3.44707 8.84553 2.99707 8.29553 2.99707Z" fill="white"/>
</svg>
