<svg width="25" height="25" viewBox="0 0 25 25" fill="none" xmlns="http://www.w3.org/2000/svg">
	<rect x="0.795532" y="0.667969" width="24" height="24" rx="4" fill="#54A029" />
	<path fill-rule="evenodd" clip-rule="evenodd" d="M12.7955 2.66797C16.6655 2.66797 19.7955 5.79797 19.7955 9.66797C19.7955 14.918 12.7955 22.668 12.7955 22.668C12.7955 22.668 5.79553 14.918 5.79553 9.66797C5.79553 5.79797 8.92553 2.66797 12.7955 2.66797ZM7.79553 9.66797C7.79553 12.518 10.7155 16.878 12.7955 19.548C14.9155 16.858 17.7955 12.548 17.7955 9.66797C17.7955 6.90797 15.5555 4.66797 12.7955 4.66797C10.0355 4.66797 7.79553 6.90797 7.79553 9.66797ZM12.7955 12.168C11.4148 12.168 10.2955 11.0487 10.2955 9.66797C10.2955 8.28726 11.4148 7.16797 12.7955 7.16797C14.1762 7.16797 15.2955 8.28726 15.2955 9.66797C15.2955 11.0487 14.1762 12.168 12.7955 12.168Z" fill="white" />
</svg>
