<svg width="74" height="74" viewBox="0 0 74 74" fill="none" xmlns="http://www.w3.org/2000/svg">
	<g clip-path="url(#clip0_1_280)">
		<path d="M56.8265 71.0176L49.261 63.3446C48.9968 63.0767 48.6385 62.9261 48.265 62.9261C48.2643 62.9261 48.2635 62.9261 48.263 62.9261L44.2039 62.932C44.195 62.932 44.1861 62.932 44.1772 62.932C41.9366 62.932 39.692 62.5142 37.5912 61.7169L40.027 60.0605C41.0241 59.3825 41.6944 58.3502 41.9149 57.1535C42.1352 55.9567 41.8774 54.7484 41.1889 53.751C40.3327 52.5111 38.9539 51.838 37.55 51.838C37.5271 51.838 37.5043 51.8381 37.4814 51.8385L43.092 46.1489C44.7941 44.4226 44.7941 41.6139 43.092 39.8877C42.6778 39.4677 42.1951 39.1427 41.6694 38.923C42.059 38.2513 42.2674 37.484 42.2674 36.6842C42.2674 35.5017 41.8132 34.3897 40.9887 33.5534C40.1641 32.7172 39.0677 32.2566 37.9014 32.2566C37.1127 32.2566 36.3563 32.4681 35.6937 32.8632C35.4771 32.3301 35.1566 31.8405 34.7425 31.4204C33.9178 30.5841 32.8214 30.1236 31.6552 30.1236C30.489 30.1236 29.3926 30.5841 28.5679 31.4204L26.5534 33.4633C26.3391 32.9846 26.0403 32.5435 25.6628 32.1605C24.8382 31.3242 23.7418 30.8638 22.5755 30.8638C21.4093 30.8638 20.3129 31.3244 19.4883 32.1605L18.5953 33.066L14.965 29.4053C13.9105 28.3359 13.9105 26.5958 14.965 25.5264C15.9529 24.5246 17.5211 24.4615 18.5822 25.3364L22.098 28.9019C22.3731 29.1809 22.7336 29.3203 23.0941 29.3203C23.4546 29.3203 23.8152 29.1807 24.0902 28.9019C24.6402 28.3441 24.6402 27.4395 24.0902 26.8817L18.0249 20.731C16.9704 19.6615 16.9704 17.9214 18.0249 16.852C19.0795 15.7825 20.7955 15.7826 21.8501 16.852L32.4767 27.6491C32.7519 27.9281 33.1123 28.0675 33.4728 28.0675C33.8333 28.0675 34.1939 27.9279 34.4689 27.6491C35.019 27.0912 35.019 26.1867 34.4689 25.6289L26.3917 17.417C25.5288 16.3408 25.5912 14.7507 26.579 13.749C27.6337 12.6796 29.3498 12.6796 30.4041 13.749L33.3635 16.7502C33.9137 17.3081 34.8057 17.3081 35.3557 16.7502C35.9058 16.1923 35.9059 15.2878 35.3557 14.73L32.3963 11.7288C30.2431 9.54542 26.7399 9.54556 24.5869 11.7288C23.8753 12.4503 23.4006 13.3217 23.1593 14.2435C22.2266 13.561 21.1104 13.1917 19.9375 13.1917C18.4625 13.1917 17.0758 13.7743 16.0328 14.8318C14.0947 16.7972 13.9023 19.8715 15.4533 22.0586C14.5441 22.3031 13.6845 22.7847 12.9728 23.5064C10.941 25.567 10.8277 28.8465 12.631 31.0442C11.7419 31.2932 10.9025 31.7699 10.2051 32.4772C8.05218 34.6605 8.05218 38.2131 10.2051 40.3966L10.8338 41.0342C8.45661 43.9287 7.16471 47.5401 7.17006 51.3538L7.17345 53.72L1.39349 59.5818C0.843396 60.1397 0.843396 61.0442 1.39349 61.6022C1.6686 61.881 2.02908 62.0206 2.38956 62.0206C2.75005 62.0206 3.11067 61.881 3.38564 61.6022L9.57905 55.3214C9.84374 55.053 9.99222 54.6887 9.99165 54.3092L9.98743 51.35C9.98236 47.7995 11.3433 44.4612 13.819 41.9506L20.8098 34.8613C20.8098 34.8613 20.8098 34.8611 20.8099 34.8611L21.4804 34.1811C21.7729 33.8844 22.1617 33.7212 22.5754 33.7212C22.9891 33.7212 23.3779 33.8844 23.6704 34.1811C23.963 34.4777 24.124 34.872 24.124 35.2915C24.124 35.6517 24.0045 35.9929 23.7856 36.2701L21.9235 38.1584C21.3734 38.7163 21.3734 39.6208 21.9235 40.1788C21.9247 40.1801 21.9261 40.1811 21.9273 40.1824C21.9285 40.1836 21.9295 40.1849 21.9308 40.1862C22.2059 40.4651 22.5664 40.6046 22.9269 40.6046C23.2873 40.6046 23.648 40.4651 23.9229 40.1862L30.5598 33.4409C30.8522 33.1442 31.241 32.9809 31.6548 32.9809C32.0685 32.9809 32.4573 33.1443 32.7497 33.4409C33.3118 34.0109 33.35 34.9134 32.8654 35.5294L26.1054 42.3996C25.5553 42.9574 25.5553 43.8619 26.1054 44.4199C26.3805 44.6988 26.741 44.8383 27.1015 44.8383C27.462 44.8383 27.8226 44.6988 28.0976 44.4199L36.8059 35.5739C37.0983 35.2772 37.4871 35.114 37.9009 35.114C38.3146 35.114 38.7034 35.2774 38.9958 35.5739C39.5996 36.1862 39.5996 37.1825 38.9958 37.7947L30.2729 46.6256C29.7228 47.1834 29.7226 48.0879 30.2729 48.6459C30.8231 49.2036 31.7151 49.2038 32.265 48.6459L39.0399 41.7907C39.6472 41.2992 40.5372 41.3379 41.0993 41.9082C41.703 42.5203 41.703 43.5167 41.0993 44.1288L31.5886 53.7737C30.9186 54.453 30.8566 55.4947 31.4414 56.2507C32.026 57.0066 33.0385 57.1939 33.8488 56.6958L36.7221 54.9294C37.4464 54.4839 38.3945 54.6863 38.8803 55.3901C39.1312 55.7534 39.225 56.1934 39.1447 56.6294C39.0644 57.0651 38.8203 57.441 38.4573 57.6879L31.8099 62.2083C29.6468 63.6793 27.128 64.4562 24.5239 64.4562C24.5178 64.4562 24.5115 64.4562 24.5054 64.4562L19.9905 64.4497C19.9898 64.4497 19.9892 64.4497 19.9885 64.4497C19.6149 64.4497 19.2565 64.6002 18.9924 64.8681L12.7989 71.1489C12.2488 71.7067 12.2488 72.6112 12.7989 73.1692C13.074 73.4481 13.4345 73.5876 13.795 73.5876C14.1554 73.5876 14.5161 73.4481 14.791 73.1692L20.5711 67.3077L24.5015 67.3134C24.509 67.3134 24.5161 67.3134 24.5238 67.3134C27.6884 67.3134 30.7503 66.3689 33.3789 64.5814L34.8023 63.6134C37.7111 65.0368 40.9474 65.7895 44.1765 65.7895C44.1865 65.7895 44.1971 65.7895 44.2072 65.7895L47.6816 65.7845L54.8343 73.0379C55.1095 73.3168 55.4699 73.4563 55.8304 73.4563C56.1909 73.4563 56.5515 73.3168 56.8265 73.0379C57.3766 72.4801 57.3766 71.5756 56.8265 71.0176ZM15.6812 36.0218C15.681 36.0219 15.681 36.0219 15.6809 36.0221L12.7782 38.9657L12.1974 38.3767C11.1428 37.3072 11.1428 35.5671 12.1974 34.4977C13.1853 33.4959 14.7534 33.4327 15.8146 34.3077L16.593 35.0971L15.6812 36.0218Z" fill="black" />
		<path d="M72.6926 54.9291C72.4306 54.6619 72.0672 54.5105 71.6967 54.5105C71.3262 54.5105 70.9628 54.6619 70.7007 54.9291C70.4387 55.1948 70.288 55.5619 70.288 55.939C70.288 56.3147 70.4387 56.6833 70.7007 56.9488C70.9628 57.2145 71.3262 57.3675 71.6967 57.3675C72.0672 57.3675 72.4306 57.2147 72.6926 56.9488C72.9546 56.6817 73.1054 56.3147 73.1054 55.939C73.1054 55.5617 72.9546 55.1948 72.6926 54.9291Z" fill="black" />
		<path d="M68.9047 51.0872L65.5399 47.675L65.5481 41.8993C65.5541 37.5354 64.2907 33.3131 61.8939 29.6887L55.6936 20.3121C54.8467 19.0313 53.5571 18.1701 52.0623 17.8869C50.5674 17.6038 49.0583 17.9351 47.8128 18.8196C45.7719 20.2689 44.9603 22.8836 45.682 25.2015L42.0004 21.468C41.4503 20.9103 40.5583 20.9103 40.0081 21.468C39.458 22.0258 39.458 22.9303 40.0081 23.4883L47.917 31.5086C48.6487 32.2506 49.771 32.3193 50.5852 31.6715C51.3994 31.0238 51.6011 29.9022 51.0646 29.0047L48.6416 24.9517C47.8809 23.6792 48.2266 22.0137 49.4287 21.1601C50.049 20.7197 50.8011 20.5547 51.5451 20.6957C52.2895 20.8367 52.9318 21.2657 53.3535 21.9035L59.5538 31.2801C61.6374 34.4311 62.7359 38.1017 62.7306 41.8953L62.7217 48.2639C62.7211 48.6434 62.8696 49.0077 63.1343 49.2761L66.9125 53.1076C67.1876 53.3864 67.5481 53.526 67.9086 53.526C68.2691 53.526 68.6297 53.3864 68.9047 53.1076C69.4547 52.5497 69.4547 51.6452 68.9047 51.0872Z" fill="black" />
		<path d="M38.6885 18.1102C38.4279 17.8445 38.0644 17.6917 37.6939 17.6917C37.322 17.6917 36.96 17.8445 36.6966 18.1102C36.4346 18.3759 36.2838 18.7445 36.2838 19.1202C36.2838 19.4973 36.4346 19.8644 36.6966 20.1301C36.96 20.3958 37.322 20.5487 37.6939 20.5487C38.0644 20.5487 38.4264 20.3958 38.6885 20.1301C38.9519 19.8644 39.1026 19.4959 39.1026 19.1202C39.1026 18.7445 38.9519 18.3759 38.6885 18.1102Z" fill="black" />
		<path d="M51.7617 40.2785C52.3118 39.7206 52.3118 38.8161 51.7617 38.2581C51.2116 37.7004 50.3197 37.7004 49.7694 38.2581L49.155 38.8812C46.5244 41.549 46.5244 45.8897 49.155 48.5573C49.4301 48.8362 49.7906 48.9757 50.151 48.9757C50.5115 48.9757 50.8721 48.8362 51.1471 48.5573C51.6972 47.9995 51.6973 47.0949 51.1471 46.537C49.615 44.9833 49.615 42.4551 51.1471 40.9014L51.7617 40.2785Z" fill="black" />
		<path d="M68.2171 8.16211C67.3216 8.16211 66.4462 8.41981 65.6894 8.89108C64.9325 8.41981 64.0571 8.16211 63.1616 8.16211C60.4662 8.16211 58.2733 10.4266 58.2733 13.2098C58.2733 14.7872 59.3917 16.6815 61.6924 19.0014C63.2413 20.5634 64.7693 21.7522 64.8337 21.8021C65.0862 21.9979 65.3878 22.0958 65.6894 22.0958C65.991 22.0958 66.2924 21.9979 66.545 21.8021C66.6094 21.7522 68.1374 20.5633 69.6863 19.0014C71.987 16.6817 73.1054 14.7872 73.1054 13.2098C73.1054 10.4265 70.9125 8.16211 68.2171 8.16211ZM65.6889 18.8397C63.3347 16.857 61.0907 14.327 61.0907 13.2098C61.0907 12.0018 62.0197 11.0192 63.1616 11.0192C63.7296 11.0192 64.2595 11.2579 64.654 11.6916C64.9208 11.9847 65.2961 12.1514 65.6894 12.1514C66.0827 12.1514 66.4581 11.9847 66.7247 11.6916C67.1192 11.258 67.6491 11.0192 68.2171 11.0192C69.359 11.0192 70.288 12.0018 70.288 13.2098C70.288 14.3242 68.0433 16.8548 65.6889 18.8397Z" fill="black" />
		<path d="M10.9246 0.44873C10.0291 0.44873 9.15377 0.706436 8.39688 1.1777C7.64 0.706436 6.76464 0.44873 5.86915 0.44873C3.17377 0.448588 0.980881 2.71294 0.980881 5.49627C0.980881 7.07364 2.09923 8.968 4.39989 11.2879C5.94888 12.8499 7.47701 14.0388 7.54125 14.0887C7.79369 14.2845 8.09528 14.3824 8.39688 14.3824C8.69848 14.3824 8.99994 14.2845 9.25252 14.0887C9.31689 14.0388 10.8449 12.8499 12.3939 11.2881C14.6945 8.96815 15.8129 7.07378 15.8129 5.49641C15.8129 2.71308 13.62 0.44873 10.9246 0.44873ZM8.39646 11.1262C6.04213 9.14343 3.79824 6.61366 3.79824 5.49627C3.79824 4.28831 4.72727 3.30563 5.86915 3.30563C6.43713 3.30563 6.96707 3.54434 7.3615 3.97804C7.62831 4.27117 8.00358 4.43788 8.39688 4.43788C8.79019 4.43788 9.1656 4.27117 9.43226 3.97804C9.82669 3.54448 10.3566 3.30563 10.9246 3.30563C12.0665 3.30563 12.9955 4.28831 12.9955 5.49627C12.9955 6.61052 10.7508 9.14128 8.39646 11.1262Z" fill="black" />
	</g>
	<defs>
		<clipPath id="clip0_1_280">
			<rect width="72.1245" height="73.1403" fill="black" transform="translate(0.980881 0.447754)" />
		</clipPath>
	</defs>
</svg>
