<svg width="60" height="77" viewBox="0 0 60 77" fill="none" xmlns="http://www.w3.org/2000/svg">
<path d="M55.1451 18.2149L51.4115 24.3958L36.0758 28.1813L48.472 7.65956L43.6917 4.77201L31.2955 25.2938L27.51 9.95812L31.2436 3.77721L26.4633 0.889661L3.36298 39.1319C0.941799 43.1553 0.0489852 47.9154 0.847654 52.5427C1.64632 57.17 4.08315 61.3554 7.71292 64.3344L1.82233 74.0862L6.60261 76.9737L12.4932 67.2219C16.819 69.0486 21.6577 69.2579 26.1251 67.8116C30.5925 66.3653 34.3904 63.36 36.825 59.3448L59.9253 21.1025L55.1451 18.2149ZM10.6308 59.5039C8.26829 57.3203 6.7309 54.389 6.27777 51.2041C5.82464 48.0191 6.48349 44.7753 8.14326 42.0195L11.8769 35.8386L15.6623 51.1742L10.6308 59.5039ZM19.7453 44.4149L15.9598 29.0793L23.427 16.7174L27.2125 32.0531L19.7453 44.4149ZM31.9928 34.9406L47.3285 31.1552L39.8613 43.517L24.5256 47.3025L31.9928 34.9406ZM15.4111 62.3914L20.4426 54.0618L35.7783 50.2763L32.0447 56.4572C30.3778 59.2087 27.8131 61.3013 24.7832 62.3823C21.7532 63.4633 18.4432 63.4665 15.4111 62.3914Z" fill="#F5AB48"/>
</svg>
