<svg width="70" height="78" viewBox="0 0 70 78" fill="none" xmlns="http://www.w3.org/2000/svg">
<path d="M60.6387 51.4318C62.1434 48.9539 62.9876 46.137 63.0833 43.2746C63.1791 40.4121 62.5229 37.6088 61.1831 35.1567C63.7783 34.3988 66.0308 32.659 67.4724 30.2989L63.0763 27.6243C62.3307 28.8471 61.1536 29.7382 59.803 30.1019C58.4525 30.4656 57.039 30.2723 55.8727 29.5644C52.4153 27.4676 48.2326 26.8773 44.2225 27.9202C40.2125 28.963 36.6947 31.556 34.4246 35.1423C33.4395 30.4147 34.3226 25.4005 36.8845 21.1737C38.1202 19.1296 38.6748 16.753 38.4615 14.4161C38.2482 12.0793 37.2791 9.91427 35.7059 8.26033L38.7127 3.31808L34.3166 0.643561L31.3098 5.58582C29.1178 4.94908 26.7496 5.0837 24.5763 5.96858C22.4029 6.85346 20.5473 8.4386 19.3001 10.4756L12.2814 22.0122L7.88533 19.3377L6.4816 21.645C1.26953 30.2121 -0.486938 40.4008 1.59859 49.9696C3.68412 59.5385 9.44081 67.7036 17.6023 72.6689C25.7637 77.6342 35.6614 78.9928 45.1179 76.4459C54.5744 73.8991 62.8151 67.6553 68.0272 59.0882L69.4309 56.7809L60.6387 51.4318ZM53.0653 34.1791C55.3943 35.6002 57.0368 37.9331 57.6325 40.666C58.2281 43.3989 57.7283 46.3088 56.2426 48.7573L38.6581 38.0593C40.1496 35.6142 42.504 33.8326 45.2048 33.1052C47.9056 32.3778 50.7324 32.764 53.0653 34.1791ZM23.6962 13.1502C24.4408 11.9263 25.618 11.0343 26.9689 10.6705C28.3199 10.3066 29.7338 10.5007 30.8997 11.2101C32.0657 11.9194 32.888 13.0858 33.186 14.4528C33.4839 15.8198 33.233 17.2753 32.4884 18.4992C29.9962 22.6153 28.7254 27.3438 28.8372 32.0844L16.6776 24.6867L23.6962 13.1502ZM20.4097 68.0543C13.8021 64.0226 9.02201 57.5357 7.01391 49.8754C5.00581 42.2151 5.91582 33.9387 9.56412 26.6816L62.1394 58.6675C57.3716 65.244 50.4395 69.8571 42.713 71.5951C34.9865 73.3331 27.0278 72.0696 20.4097 68.0543Z" fill="#F5AB48"/>
</svg>
